<svg width="61" height="61" viewBox="0 0 61 61" fill="none" xmlns="http://www.w3.org/2000/svg">
<path d="M0 27.5H8.25V33H0V27.5ZM49.775 6.875L44 12.65L47.85 16.5L53.625 10.725L49.775 6.875ZM27.5 0H33V8.25H27.5V0ZM10.725 6.875L6.875 10.725L12.65 16.5L16.5 12.65L10.725 6.875ZM24.75 57.75C24.75 59.4 25.85 60.5 27.5 60.5H33C34.65 60.5 35.75 59.4 35.75 57.75V55H24.75V57.75ZM30.25 13.75C21.175 13.75 13.75 21.175 13.75 30.25C13.75 36.3 17.05 41.8 22 44.55V49.5C22 51.15 23.1 52.25 24.75 52.25H35.75C37.4 52.25 38.5 51.15 38.5 49.5V44.55C43.45 41.8 46.75 36.3 46.75 30.25C46.75 21.175 39.325 13.75 30.25 13.75ZM33 40.975V44H27.5V40.975C22.825 39.875 19.25 35.475 19.25 30.25C19.25 24.2 24.2 19.25 30.25 19.25C36.3 19.25 41.25 24.2 41.25 30.25C41.25 35.475 37.675 39.6 33 40.975ZM52.25 27.5H60.5V33H52.25V27.5Z" fill="white"/>
</svg>
