<svg width="67" height="66" viewBox="0 0 67 66" fill="none" xmlns="http://www.w3.org/2000/svg">
<path d="M43.8108 47.7501V53.2501H5.53665V47.7501C5.53665 47.7501 5.53665 36.7501 24.6737 36.7501C43.8108 36.7501 43.8108 47.7501 43.8108 47.7501ZM34.2423 21.6251C34.2423 19.7215 33.6811 17.8606 32.6297 16.2778C31.5783 14.695 30.0839 13.4613 28.3355 12.7328C26.587 12.0043 24.6631 11.8137 22.807 12.1851C20.9509 12.5565 19.2459 13.4732 17.9078 14.8192C16.5696 16.1653 15.6583 17.8803 15.2891 19.7474C14.9199 21.6145 15.1093 23.5497 15.8336 25.3085C16.5578 27.0672 17.7842 28.5704 19.3577 29.628C20.9313 30.6856 22.7813 31.2501 24.6737 31.2501C27.2115 31.2501 29.6453 30.2361 31.4397 28.431C33.2342 26.626 34.2423 24.1779 34.2423 21.6251ZM43.6468 36.7501C45.3275 38.0584 46.7027 39.7213 47.6757 41.6218C48.6486 43.5222 49.1958 45.6141 49.2786 47.7501V53.2501H60.2141V47.7501C60.2141 47.7501 60.2141 37.7676 43.6468 36.7501ZM41.077 12.0001C39.1952 11.9896 37.3549 12.5555 35.8006 13.6226C37.4613 15.9567 38.3542 18.7549 38.3542 21.6251C38.3542 24.4954 37.4613 27.2936 35.8006 29.6276C37.3549 30.6948 39.1952 31.2607 41.077 31.2501C43.6147 31.2501 46.0485 30.2361 47.843 28.431C49.6374 26.626 50.6455 24.1779 50.6455 21.6251C50.6455 19.0724 49.6374 16.6243 47.843 14.8192C46.0485 13.0142 43.6147 12.0001 41.077 12.0001Z" fill="white"/>
</svg>
