<svg width="66" height="66" viewBox="0 0 66 66" fill="none" xmlns="http://www.w3.org/2000/svg">
<path d="M25.6027 51.9884L25.5624 51.7001L25.2919 51.5928C23.6147 50.9272 22.1701 50.0197 20.7648 48.9387L20.5377 48.7639L20.272 48.8717L13.434 51.6453C13.0354 51.7862 12.5708 51.629 12.3739 51.2681L12.3741 51.268L12.3679 51.2573L6.86787 41.7423L6.86789 41.7423L6.86545 41.7381C6.64013 41.3568 6.74107 40.8885 7.07471 40.625C7.07474 40.625 7.07478 40.625 7.07481 40.6249L12.8766 36.0605L13.0853 35.8963L13.0662 35.6315L12.8762 32.9995L13.0663 30.2849L13.085 30.0179L12.8732 29.8543L7.07481 25.3751C7.0742 25.3746 7.07358 25.3741 7.07297 25.3736C6.74072 25.1099 6.64052 24.6425 6.86545 24.2619L6.86787 24.2577L12.3679 14.7427L12.368 14.7428L12.3739 14.7319C12.5807 14.3528 13.0515 14.1982 13.4232 14.3503L13.4261 14.3515L20.2736 17.1015L20.5348 17.2064L20.76 17.0375C22.1685 15.9811 23.6142 15.073 25.2919 14.4072L25.5624 14.2999L25.6027 14.0116L26.6192 6.73139C26.6912 6.31637 27.0579 6 27.5 6H38.5C38.9421 6 39.3088 6.31639 39.3808 6.73143L40.3973 14.0116L40.4375 14.2999L40.7081 14.4072C42.3858 15.073 43.8315 15.9811 45.24 17.0375L45.4651 17.2064L45.7263 17.1015L52.5738 14.3515L52.5768 14.3503C52.9484 14.1982 53.4192 14.3528 53.626 14.7319L53.6259 14.732L53.6321 14.7427L59.1321 24.2577L59.1345 24.2619C59.3594 24.6425 59.2593 25.1098 58.9271 25.3736C58.9264 25.3741 58.9258 25.3746 58.9252 25.3751L53.1268 29.8543L52.915 30.0179L52.9337 30.2849L53.1238 33L52.9337 35.7151L52.915 35.9821L53.1268 36.1457L58.9252 40.6249C58.9258 40.6254 58.9264 40.6259 58.9271 40.6264C59.2593 40.8902 59.3594 41.3575 59.1345 41.7381L59.1321 41.7423L53.6321 51.2573L53.632 51.2572L53.626 51.2681C53.4192 51.6472 52.9484 51.8018 52.5768 51.6497L52.5738 51.6485L45.7263 48.8985L45.4651 48.7936L45.24 48.9625C43.8315 50.0189 42.3858 50.927 40.7081 51.5928L40.4375 51.7001L40.3973 51.9884L39.3808 59.2686C39.3087 59.6836 38.9421 60 38.5 60H27.5C27.0579 60 26.6912 59.6836 26.6192 59.2686L25.6027 51.9884ZM30.9375 10.5H30.5034L30.4424 10.9298L29.4736 17.7638C26.3301 18.4932 23.5427 20.1683 21.4534 22.47L15.1581 19.7534L14.7494 19.577L14.5269 19.9626L12.4644 23.5376L12.2407 23.9254L12.6015 24.1905L18.1117 28.2383C17.1299 31.3444 17.1292 34.6786 18.1111 37.7626L12.5736 41.8373L12.2134 42.1024L12.4369 42.4899L14.4994 46.0649L14.7212 46.4493L15.1292 46.2747L21.4819 43.5558C23.5664 45.83 26.3267 47.5043 29.4462 48.2108L30.4149 55.0699L30.4756 55.5H30.91H35.09H35.5241L35.585 55.0702L36.5539 48.2355C39.6722 47.5054 42.4327 45.831 44.5181 43.5558L50.8708 46.2747L51.2788 46.4493L51.5006 46.0649L53.5631 42.4899L53.7873 42.1012L53.4251 41.8364L47.8885 37.7884C48.8706 34.6811 48.8705 31.3455 47.8882 28.2383L53.3985 24.1905L53.7593 23.9254L53.5356 23.5376L51.4731 19.9626L51.2506 19.577L50.8419 19.7534L44.5466 22.47C42.458 20.1692 39.671 18.4944 36.5261 17.7886L35.5576 10.9301L35.4968 10.5H35.0625H30.9375ZM33 22.5C35.7848 22.5 38.4555 23.6062 40.4246 25.5754C42.3937 27.5445 43.5 30.2152 43.5 33C43.5 35.7848 42.3937 38.4555 40.4246 40.4246C38.4555 42.3938 35.7848 43.5 33 43.5C30.2152 43.5 27.5445 42.3938 25.5754 40.4246C23.6062 38.4555 22.5 35.7848 22.5 33C22.5 30.2152 23.6062 27.5445 25.5754 25.5754C27.5445 23.6062 30.2152 22.5 33 22.5ZM33 27C31.4087 27 29.8826 27.6321 28.7573 28.7574C27.6321 29.8826 27 31.4087 27 33C27 34.5913 27.6321 36.1174 28.7573 37.2426C29.8826 38.3679 31.4087 39 33 39C34.5913 39 36.1174 38.3679 37.2426 37.2426C38.3678 36.1174 39 34.5913 39 33C39 31.4087 38.3678 29.8826 37.2426 28.7574C36.1174 27.6321 34.5913 27 33 27Z" fill="#F2A40E" stroke="black"/>
</svg>
